<?xml version="1.0" encoding="UTF-8" standalone="no"?>
<svg width="25px" height="25px" viewBox="0 0 25 25" version="1.1" xmlns="http://www.w3.org/2000/svg" xmlns:xlink="http://www.w3.org/1999/xlink" xmlns:sketch="http://www.bohemiancoding.com/sketch/ns">
    <!-- Generator: Sketch 3.3.2 (12043) - http://www.bohemiancoding.com/sketch -->
    <title>download</title>
    <desc>Created with Sketch.</desc>
    <defs></defs>
    <g id="Page-1" stroke="none" stroke-width="1" fill="none" fill-rule="evenodd" sketch:type="MSPage">
        <g id="svg" sketch:type="MSArtboardGroup" transform="translate(-358.000000, -2.000000)" fill="#FFFFFF">
            <path d="M375.615385,20.8076923 C375.615385,21.2073317 375.284255,21.5384615 374.884615,21.5384615 C374.484976,21.5384615 374.153846,21.2073317 374.153846,20.8076923 C374.153846,20.4080529 374.484976,20.0769231 374.884615,20.0769231 C375.284255,20.0769231 375.615385,20.4080529 375.615385,20.8076923 L375.615385,20.8076923 Z M378.538462,20.8076923 C378.538462,21.2073317 378.207332,21.5384615 377.807692,21.5384615 C377.408053,21.5384615 377.076923,21.2073317 377.076923,20.8076923 C377.076923,20.4080529 377.408053,20.0769231 377.807692,20.0769231 C378.207332,20.0769231 378.538462,20.4080529 378.538462,20.8076923 L378.538462,20.8076923 Z M380,18.25 C380,17.6448317 379.509014,17.1538462 378.903846,17.1538462 L373.605769,17.1538462 L372.052885,18.7067308 C371.630409,19.1177885 371.082332,19.3461538 370.5,19.3461538 C369.917668,19.3461538 369.369591,19.1177885 368.947115,18.7067308 L367.405649,17.1538462 L362.096154,17.1538462 C361.490986,17.1538462 361,17.6448317 361,18.25 L361,21.9038462 C361,22.5090144 361.490986,23 362.096154,23 L378.903846,23 C379.509014,23 380,22.5090144 380,21.9038462 L380,18.25 Z M376.289062,11.7530048 C376.17488,11.4903846 375.91226,11.3076923 375.615385,11.3076923 L372.692308,11.3076923 L372.692308,6.19230769 C372.692308,5.79266827 372.361178,5.46153846 371.961538,5.46153846 L369.038462,5.46153846 C368.638822,5.46153846 368.307692,5.79266827 368.307692,6.19230769 L368.307692,11.3076923 L365.384615,11.3076923 C365.08774,11.3076923 364.82512,11.4903846 364.710938,11.7530048 C364.596755,12.0270433 364.653846,12.3467548 364.870793,12.5522837 L369.986178,17.6676683 C370.123197,17.8161058 370.317308,17.8846154 370.5,17.8846154 C370.682692,17.8846154 370.876803,17.8161058 371.013822,17.6676683 L376.129207,12.5522837 C376.346154,12.3467548 376.403245,12.0270433 376.289062,11.7530048 L376.289062,11.7530048 Z" id="Type-something" sketch:type="MSShapeGroup"></path>
        </g>
    </g>
</svg>