<?xml version="1.0" encoding="UTF-8" standalone="no"?>
<svg width="25px" height="25px" viewBox="0 0 25 25" version="1.1" xmlns="http://www.w3.org/2000/svg" xmlns:xlink="http://www.w3.org/1999/xlink" xmlns:sketch="http://www.bohemiancoding.com/sketch/ns">
    <!-- Generator: Sketch 3.3.2 (12043) - http://www.bohemiancoding.com/sketch -->
    <title>embed</title>
    <desc>Created with Sketch.</desc>
    <defs></defs>
    <g id="Page-1" stroke="none" stroke-width="1" fill="none" fill-rule="evenodd" sketch:type="MSPage">
        <g id="svg" sketch:type="MSArtboardGroup" transform="translate(-328.000000, -2.000000)" fill="#FFFFFF">
            <path d="M332.612,15.072 L336.882,13.098 C337.232,12.93 337.498,12.594 337.498,12.272 C337.498,11.782 337.12,11.362 336.546,11.362 C336.462,11.362 336.224,11.39 336.098,11.46 L330.512,14.148 C330.12,14.344 329.812,14.512 329.812,15.072 C329.812,15.618 330.134,15.8 330.526,15.996 L336.098,18.67 C336.238,18.74 336.49,18.768 336.546,18.768 C337.12,18.768 337.498,18.362 337.498,17.858 C337.498,17.55 337.246,17.214 336.882,17.046 L332.612,15.072 Z M343.49,10.592 C343.518,10.536 343.546,10.466 343.56,10.382 C343.602,9.948 343.266,9.486 342.79,9.402 C342.342,9.318 341.908,9.542 341.74,9.976 L338.086,19.608 C337.932,20.056 338.338,20.518 338.842,20.616 C339.29,20.686 339.738,20.462 339.906,20.028 L343.49,10.592 Z M344.778,17.046 C344.414,17.214 344.162,17.55 344.162,17.858 C344.162,18.362 344.54,18.768 345.114,18.768 C345.17,18.768 345.422,18.74 345.562,18.67 L351.134,15.996 C351.526,15.8 351.848,15.618 351.848,15.072 C351.848,14.512 351.54,14.344 351.148,14.148 L345.562,11.46 C345.436,11.39 345.198,11.362 345.114,11.362 C344.54,11.362 344.162,11.782 344.162,12.272 C344.162,12.594 344.428,12.93 344.778,13.098 L349.048,15.072 L344.778,17.046 Z" id="icn" sketch:type="MSShapeGroup"></path>
        </g>
    </g>
</svg>