<?xml version="1.0" encoding="UTF-8" standalone="no"?>
<svg width="25px" height="25px" viewBox="0 0 25 25" version="1.1" xmlns="http://www.w3.org/2000/svg" xmlns:xlink="http://www.w3.org/1999/xlink" xmlns:sketch="http://www.bohemiancoding.com/sketch/ns">
    <!-- Generator: Sketch 3.3.2 (12043) - http://www.bohemiancoding.com/sketch -->
    <title>google</title>
    <desc>Created with Sketch.</desc>
    <defs></defs>
    <g id="Page-1" stroke="none" stroke-width="1" fill="none" fill-rule="evenodd" sketch:type="MSPage">
        <g id="svg" sketch:type="MSArtboardGroup" transform="translate(-298.000000, -2.000000)" fill="#FFFFFF">
            <path d="M307.583003,23.1099483 C305.484839,23.1099483 303.970594,21.7552916 303.970594,20.1286453 C303.970594,18.5337488 305.849918,17.2055503 307.947044,17.2288335 C308.435544,17.2351834 308.891892,17.3145579 309.305717,17.4510818 C310.443475,18.2596425 311.260753,18.7157808 311.491001,19.636524 C311.534562,19.8238476 311.558416,20.0143462 311.558416,20.2111947 C311.558416,21.8388993 310.530596,23.1099483 307.583003,23.1099483 M308.133732,13.5680856 C306.726313,13.5246943 305.388384,11.9615475 305.14569,10.0756115 C304.902996,8.18967545 305.846806,6.74611947 307.254225,6.78845249 C308.660606,6.83184384 309.999573,8.34419097 310.242267,10.2311853 C310.484961,12.1171214 309.541151,13.611477 308.133732,13.5680856 M311.051248,16.3610066 C310.557562,16.0043509 309.614789,15.1375823 309.614789,14.6274694 C309.614789,14.0284572 309.78177,13.735301 310.662315,13.0325729 C311.565676,12.3118532 312.205601,11.2990357 312.205601,10.1221778 C312.205601,8.71883819 311.593679,7.35253998 310.444512,6.90169332 L312.17656,6.90169332 L313.399366,6 L307.935635,6 C305.487951,6 303.182356,7.89334431 303.182356,10.0861947 C303.182356,12.3277281 304.852175,14.1364064 307.34342,14.1364064 C307.517662,14.1364064 307.684644,14.1332314 307.849552,14.1205315 C307.688793,14.4359125 307.571594,14.7925682 307.571594,15.1608655 C307.571594,15.7842192 307.900372,16.2900988 308.316271,16.7017874 C308.002013,16.7017874 307.698127,16.7113123 307.369349,16.7113123 C304.335672,16.7113123 302,18.6819144 302,20.7276576 C302,22.7405927 304.560735,24 307.593374,24 C311.051248,24 312.962723,21.9976482 312.962723,19.9836548 C312.962723,18.3697084 312.494967,17.4023989 311.051248,16.3610066 M319,13.7321261 L316.873833,13.7321261 L316.873833,11.5625588 L315.161491,11.5625588 L315.161491,13.7321261 L313.035324,13.7321261 L313.035324,15.4794214 L315.161491,15.4794214 L315.161491,17.6489887 L316.873833,17.6489887 L316.873833,15.4794214 L319,15.4794214 L319,13.7321261" id="Shape-Copy-7" sketch:type="MSShapeGroup"></path>
        </g>
    </g>
</svg>