<?xml version="1.0" encoding="UTF-8" standalone="no"?>
<svg width="24px" height="21px" viewBox="0 0 24 21" version="1.1" xmlns="http://www.w3.org/2000/svg" xmlns:xlink="http://www.w3.org/1999/xlink" xmlns:sketch="http://www.bohemiancoding.com/sketch/ns">
    <!-- Generator: Sketch 3.3.2 (12043) - http://www.bohemiancoding.com/sketch -->
    <title>home</title>
    <desc>Created with Sketch.</desc>
    <defs></defs>
    <g id="Page-1" stroke="none" stroke-width="1" fill="none" fill-rule="evenodd" sketch:type="MSPage">
        <g id="svg" sketch:type="MSArtboardGroup" transform="translate(-421.000000, -4.000000)" fill="#282245">
            <g id="noun_157742_cc" sketch:type="MSLayerGroup" transform="translate(422.000000, 5.000000)">
                <g id="Group" sketch:type="MSShapeGroup">
                    <path d="M11.966122,4.50880556 C11.045878,3.930625 10.8229268,3.94804167 9.94373171,4.50880556 C9.31458537,4.90991667 3.1862439,8.89041667 3.1862439,8.89041667 L3.1862439,16.8210694 C3.1862439,17.9893056 3.59673171,18.7796528 4.99212195,18.7796528 L8.3744878,18.7796528 L8.3744878,12.3244028 L13.624439,12.3244028 L13.624439,18.7796528 L17.2136585,18.7796528 C18.442439,18.7796528 18.8132195,18.1661111 18.8132195,17.01925 L18.8132195,8.89041667 C18.8132195,8.89041667 12.5960732,4.90516667 11.966122,4.50880556 L11.966122,4.50880556 Z" id="Shape"></path>
                    <path d="M11.4593171,2.45997222 C11.991878,2.79933333 19.8665366,7.687875 20.2137073,7.90215278 C20.3787073,8.00454167 20.5622195,8.05283333 20.7446585,8.05283333 L20.7446585,8.05283333 C21.0768049,8.05283333 21.4017073,7.88948611 21.5916585,7.59181944 C21.8857073,7.13159722 21.7437805,6.52438889 21.2766829,6.23569444 C18.921878,4.78193056 12.7401463,0.917013889 12.3036341,0.6745 C11.2280488,0.0773194444 10.7668537,0.0606944444 9.69556098,0.6745 C9.26253659,0.922819444 3.07758537,4.78193056 0.723317073,6.23569444 C0.255414634,6.52438889 0.114292683,7.13186111 0.408341463,7.59181944 C0.597756098,7.88922222 0.922658537,8.05283333 1.25614634,8.05283333 L1.25614634,8.05283333 C1.4375122,8.05283333 1.62102439,8.00427778 1.78682927,7.90215278 C2.13346341,7.687875 10.0306585,2.79115278 10.569122,2.45997222 C10.8323171,2.29794444 11.1789512,2.28158333 11.4593171,2.45997222 L11.4593171,2.45997222 Z" id="Shape"></path>
                </g>
            </g>
        </g>
    </g>
</svg>