<?xml version="1.0" encoding="UTF-8" standalone="no"?>
<svg width="20px" height="20px" viewBox="0 0 20 20" version="1.1" xmlns="http://www.w3.org/2000/svg" xmlns:xlink="http://www.w3.org/1999/xlink" xmlns:sketch="http://www.bohemiancoding.com/sketch/ns">
    <!-- Generator: Sketch 3.3.2 (12043) - http://www.bohemiancoding.com/sketch -->
    <title>info</title>
    <desc>Created with Sketch.</desc>
    <defs></defs>
    <g id="Page-1" stroke="none" stroke-width="1" fill="none" fill-rule="evenodd" sketch:type="MSPage">
        <g id="svg" sketch:type="MSArtboardGroup" transform="translate(-394.000000, -6.000000)"  fill="#D32354">
            <path d="M404,23 C407.865993,23 411,19.8659934 411,16 C411,12.1340066 407.865993,9 404,9 C400.134007,9 397,12.1340066 397,16 C397,19.8659934 400.134007,23 404,23 Z M406.0072,19.1029252 L405.876118,19.6335231 C405.482868,19.7868077 405.169068,19.9037346 404.934707,19.9843073 C404.700346,20.0648799 404.428254,20.1051657 404.118421,20.1051657 C403.641755,20.1051657 403.271351,19.9902039 403.007199,19.760277 C402.743047,19.5303501 402.610972,19.2385242 402.610972,18.8847905 C402.610972,18.7472274 402.620903,18.6067186 402.640764,18.4632599 C402.660625,18.3198012 402.692402,18.1576757 402.736097,17.9768785 L403.224677,16.255383 C403.268371,16.0903073 403.305114,15.9340772 403.334905,15.7866882 C403.364697,15.6392991 403.379592,15.5046858 403.379592,15.3828442 C403.379592,15.1627432 403.333913,15.0094609 403.242552,14.9229927 C403.151191,14.8365245 402.976416,14.793291 402.718222,14.793291 C402.591111,14.793291 402.461023,14.8129426 402.327953,14.8522463 C402.194884,14.8915501 402.080685,14.9288881 401.985352,14.9642614 L402.116434,14.4336635 C402.438184,14.3039611 402.746026,14.1929297 403.03997,14.1005659 C403.333914,14.0082021 403.611965,13.9620209 403.874131,13.9620209 C404.346824,13.9620209 404.71127,14.0750175 404.967478,14.301014 C405.223686,14.5270106 405.351788,14.8208017 405.351788,15.1823961 C405.351788,15.2570732 405.34285,15.3887388 405.324975,15.5773968 C405.3071,15.7660548 405.27433,15.9389887 405.226664,16.0962036 L404.738083,17.8118036 C404.698361,17.9493667 404.662612,18.1065793 404.630834,18.2834462 C404.599056,18.460313 404.583168,18.5939438 404.583168,18.6843424 C404.583168,18.9123041 404.634806,19.0675516 404.738083,19.1500894 C404.841361,19.2326273 405.020108,19.2738956 405.27433,19.2738956 C405.393496,19.2738956 405.52855,19.2532615 405.679494,19.2119925 C405.830438,19.1707236 405.939672,19.1343682 406.0072,19.1029252 C406.0072,19.1029252 405.939672,19.1343682 406.0072,19.1029252 Z M406.132324,11.9044801 C406.132324,12.2031886 406.018125,12.4576765 405.789722,12.6679516 C405.56132,12.8782266 405.286248,12.9833625 404.964499,12.9833625 C404.642749,12.9833625 404.366684,12.8782266 404.136296,12.6679516 C403.905907,12.4576765 403.790715,12.2031886 403.790715,11.9044801 C403.790715,11.6057716 403.905907,11.3503011 404.136296,11.1380609 C404.366684,10.9258207 404.642749,10.8197021 404.964499,10.8197021 C405.286248,10.8197021 405.56132,10.9258207 405.789722,11.1380609 C406.018125,11.3503011 406.132324,11.6057716 406.132324,11.9044801 C406.132324,11.9044801 406.132324,11.6057716 406.132324,11.9044801 Z" id="Information" sketch:type="MSShapeGroup"></path>
        </g>
    </g>
</svg>