<?xml version="1.0" encoding="UTF-8" standalone="no"?>
<svg width="254px" height="66px" viewBox="0 0 254 66" version="1.1" xmlns="http://www.w3.org/2000/svg" xmlns:xlink="http://www.w3.org/1999/xlink" xmlns:sketch="http://www.bohemiancoding.com/sketch/ns">
    <!-- Generator: Sketch 3.3.2 (12043) - http://www.bohemiancoding.com/sketch -->
    <title>logo</title>
    <desc>Created with Sketch.</desc>
    <defs></defs>
    <g id="Page-1" stroke="none" stroke-width="1" fill="none" fill-rule="evenodd" sketch:type="MSPage">
        <g id="logo" sketch:type="MSArtboardGroup">
            <g id="Logo" sketch:type="MSLayerGroup">
                <path d="M41.5635657,10.5048706 L60.4193761,0.305152941 L68.2669664,24.4223294 C69.4134618,27.9490588 66.7833578,31.5674118 63.0743364,31.5674118 L48.4169052,31.5674118 L41.5635657,10.5048706" id="Fill-1" fill="#eb1d5d" sketch:type="MSShapeGroup"></path>
                <path d="M12.5337737,31.5674118 L9.25119266,10.5048706 L41.5635657,10.5048706 L34.7102263,31.5674118 L12.5337737,31.5674118" id="Fill-2" fill="#eb1d5d" sketch:type="MSShapeGroup"></path>
                <path d="M12.5337737,31.5674118 L30.476893,44.5678588 L23.622,65.6467059 L0.306819572,65.6467059 L12.5337737,31.5674118" id="Fill-3" fill="#eb1d5d" sketch:type="MSShapeGroup"></path>
                <path d="M59.5051315,65.6467059 L35.9887706,62.1751059 C33.6864587,61.8350118 32.9594128,58.872 34.843052,57.5054118 L41.5635657,52.6291765 L59.5051315,65.6467059" id="Fill-4" fill="#eb1d5d" sketch:type="MSShapeGroup"></path>
                <path d="M54.4321223,47.1884471 L54.2814312,48.1838824 C54.1299633,49.2072706 54.8236086,49.8703765 56.4509174,49.8703765 C57.4148746,49.8703765 58.2584343,49.6288941 59.2822018,49.2072706 C59.4033761,49.1467059 59.6744648,49.0271294 60.1863486,49.0271294 C61.4819817,49.0271294 61.8431743,49.8400941 61.8431743,50.4721412 C61.8431743,52.7604 57.6859633,53.3334353 55.6671682,53.3334353 C51.6901651,53.3334353 49.7319572,51.0436235 50.153737,48.0619765 L50.8466055,43.0335529 C51.2683853,39.9913412 53.8293578,37.6728 58.0168624,37.6728 C61.5728624,37.6728 63.2894985,39.4501412 63.2894985,42.0691765 C63.2894985,45.3218118 61.3312905,47.3709176 56.7212294,47.3709176 C55.9390336,47.3709176 55.275682,47.3103529 54.4321223,47.1884471 L54.4321223,47.1884471 Z M57.5352722,40.8951529 C56.088948,40.8951529 55.2150948,41.6475529 55.0348869,42.8534118 L54.8539021,44.1477882 C55.8178593,44.2378588 56.7212294,44.2681412 57.0226116,44.2681412 C58.3182446,44.2681412 59.1322875,43.7859529 59.1322875,42.2508706 C59.1322875,41.2864941 58.5901101,40.8951529 57.5352722,40.8951529 L57.5352722,40.8951529 Z" id="Fill-5" fill="#eb1d5d" sketch:type="MSShapeGroup"></path>
                <path d="M69.9556391,53.3334353 C66.3103119,53.3334353 64.6830031,50.9543294 65.1661468,47.4299294 L66.2800183,39.5697176 C66.4307095,38.5463294 67.3045627,37.7620941 68.6297125,37.7620941 C69.9556391,37.7620941 70.5886972,38.5463294 70.4380061,39.5697176 L69.3233578,47.4299294 C69.1128563,48.9665647 69.6247401,49.8400941 70.9506667,49.8400941 C71.582948,49.8400941 72.3659205,49.6288941 73.3601713,49.2072706 C73.3601713,48.9968471 73.3601713,48.8159294 73.3904648,48.6357882 L74.6558043,39.5697176 C74.8072722,38.5463294 75.6197615,37.7620941 77.0062752,37.7620941 C78.3920122,37.7620941 78.9644832,38.5463294 78.813792,39.5697176 L77.4583486,49.2375529 C77.3985382,49.6894588 77.5484526,49.9006588 77.8801284,50.292 C78.09063,50.5327059 78.1807339,50.8044706 78.1807339,51.1041882 C78.1807339,52.4296235 76.9759817,53.1532941 75.9817309,53.1532941 C75.1979817,53.1532941 74.6558043,52.6711059 74.2938349,52.008 C72.7278899,53.0018824 71.3118593,53.3334353 69.9556391,53.3334353" id="Fill-6" fill="#eb1d5d" sketch:type="MSShapeGroup"></path>
                <path d="M86.5200122,41.7989647 C86.5200122,42.0093882 86.5200122,42.1903059 86.4897187,42.3704471 L85.2243792,51.4652471 C85.0729113,52.5212471 84.0491437,53.3334353 82.8739083,53.3334353 C81.6994495,53.3334353 80.9157003,52.5212471 81.0663914,51.4652471 L82.3317309,42.3704471 C82.4218349,41.6778353 82.4218349,41.3167765 82.2113333,40.9557176 C82.0606422,40.6847294 81.9099511,40.4735294 81.9099511,40.1412 C81.9099511,38.9671765 83.054893,38.1549882 84.2293517,38.1549882 C84.8624098,38.1549882 85.3447768,38.5463294 85.7067462,39.0875294 C87.1825872,38.2745647 88.6592049,37.7923765 89.6231621,37.7923765 C91.3102813,37.7923765 91.8524587,38.4547059 91.8524587,39.3282353 C91.8524587,40.6536706 90.6772232,41.5582588 89.4421774,41.4969176 C88.1465443,41.4363529 87.6346606,41.3773412 86.5200122,41.7989647" id="Fill-7" fill="#282145" sketch:type="MSShapeGroup"></path>
                <path d="M91.5456391,47.4299294 L92.0280061,44.0266588 C92.5406667,40.4432471 95.0107584,37.6728 99.3186606,37.6728 C103.687927,37.6728 105.164544,39.8407059 104.591297,43.9070824 L103.809101,49.5093176 C103.687927,50.4115765 104.139223,50.3222824 104.62159,50.5327059 C104.98356,50.6825647 105.164544,50.9543294 105.164544,51.4365176 C105.164544,52.5212471 104.56178,53.2425882 102.753486,53.2425882 C101.639615,53.2425882 100.945969,52.9428706 100.374275,51.9777176 C99.1384526,52.8815294 97.9329235,53.3334353 96.2458043,53.3334353 C92.7511682,53.3334353 91.0640489,50.9543294 91.5456391,47.4299294 L91.5456391,47.4299294 Z M100.52419,43.2136941 C100.734691,41.7989647 100.132703,41.2259294 98.5962752,41.2259294 C97.1196575,41.2259294 96.4570826,42.1600235 96.1859939,44.0266588 L95.7036269,47.4299294 C95.4923486,48.9968471 96.0353028,49.8400941 97.3309358,49.8400941 C97.9632171,49.8400941 98.7469664,49.6288941 99.7412171,49.2072706 C99.7412171,48.9968471 99.7412171,48.8159294 99.7707339,48.6357882 L100.52419,43.2136941 L100.52419,43.2136941 Z" id="Fill-8" fill="#282145" sketch:type="MSShapeGroup"></path>
                <path d="M117.031083,38.3654118 L117.754245,33.2150824 C117.904936,32.1901412 118.748495,31.3779529 120.073645,31.3779529 C121.399572,31.3779529 122.062924,32.2212 121.911456,33.2150824 L119.651865,49.2375529 C119.592055,49.6894588 119.741969,49.9006588 120.073645,50.292 C120.284147,50.5327059 120.375804,50.8044706 120.375804,51.1041882 C120.375804,52.4296235 119.139982,53.1532941 118.145731,53.1532941 C117.392275,53.1532941 116.850098,52.6711059 116.488905,52.008 C114.89189,52.8209647 113.596257,53.3334353 112.059829,53.3334353 C108.565193,53.3334353 106.878073,50.9543294 107.359664,47.4299294 L107.842031,44.0266588 C108.353914,40.4432471 110.131138,37.7923765 114.439817,37.7923765 C115.37348,37.7923765 116.006538,37.9135059 117.031083,38.3654118 L117.031083,38.3654118 Z M116.579009,41.6172706 C115.674862,41.3470588 114.921407,41.2259294 114.409523,41.2259294 C112.933682,41.2259294 112.27033,42.1600235 111.999242,44.0266588 L111.516875,47.4299294 C111.306373,48.9968471 111.84855,49.8400941 113.144183,49.8400941 C113.777242,49.8400941 114.560214,49.6288941 115.555242,49.2072706 C115.555242,48.9968471 115.555242,48.8159294 115.584758,48.6357882 L116.579009,41.6172706 L116.579009,41.6172706 Z" id="Fill-9" fill="#282145" sketch:type="MSShapeGroup"></path>
                <path d="M125.053443,39.6 C125.203358,38.6068941 126.228679,37.7620941 127.403138,37.7620941 C128.578373,37.7620941 129.362122,38.6068941 129.211431,39.6 L127.824917,49.4184706 C127.734813,50.0505176 127.734813,50.2003765 128.096006,50.6522824 C128.307284,50.9240471 128.488269,51.1041882 128.488269,51.5258118 C128.488269,52.7013882 127.553829,53.3334353 125.987107,53.3334353 C124.781578,53.3334353 123.155046,52.9428706 123.607119,49.7787529 L125.053443,39.6 L125.053443,39.6 Z M127.674226,35.8341176 C126.43918,35.8341176 125.595621,34.9916471 125.595621,33.9372 C125.595621,32.6731059 126.830667,31.6186588 128.276991,31.6186588 C129.481743,31.6186588 130.32608,32.4619059 130.32608,33.5163529 C130.32608,34.7804471 129.12055,35.8341176 127.674226,35.8341176 L127.674226,35.8341176 Z" id="Fill-10" fill="#282145" sketch:type="MSShapeGroup"></path>
                <path d="M131.325768,47.7319765 L131.958826,43.2439765 C132.380606,40.0821882 135.002165,37.6417412 139.28055,37.6417412 C143.558159,37.6417412 145.456557,40.0821882 145.034777,43.2439765 L144.401719,47.7319765 C143.949645,50.8937647 141.359156,53.3334353 137.080771,53.3334353 C132.803162,53.3334353 130.874471,50.8937647 131.325768,47.7319765 L131.325768,47.7319765 Z M140.244508,47.7319765 L140.876789,43.2136941 C141.057774,41.9798824 140.334612,41.1956471 138.76789,41.1956471 C137.201168,41.1956471 136.297798,41.9798824 136.116813,43.2136941 L135.483755,47.7319765 C135.302771,48.9968471 135.996416,49.7787529 137.563138,49.7787529 C139.129083,49.7787529 140.063523,48.9968471 140.244508,47.7319765 L140.244508,47.7319765 Z" id="Fill-11" fill="#282145" sketch:type="MSShapeGroup"></path>
                <path d="M156.633333,43.3946118 C156.964232,41.1063529 156.18126,39.8112 154.373743,39.8112 C153.198508,39.8112 151.963462,40.2933882 150.848813,41.0752941 C150.848813,41.4060706 150.848813,41.7081176 150.81852,41.9488235 L149.372196,52.1889176 C149.281315,52.8209647 148.829242,53.3334353 148.047046,53.3334353 C147.263297,53.3334353 146.931621,52.8209647 147.021725,52.1889176 L148.468826,41.9488235 C148.708844,40.2933882 148.438532,40.2933882 148.227254,39.8407059 C148.19696,39.7498588 148.076563,39.5697176 148.076563,39.3282353 C148.076563,38.6961882 148.649034,38.1837176 149.342679,38.1837176 C149.88408,38.1837176 150.246049,38.5463294 150.486844,39.0572471 C151.963462,38.1247059 153.5597,37.7030824 155.006801,37.7030824 C158.200055,37.7030824 159.465394,39.9913412 158.983804,43.3946118 L158.019847,50.292 C157.92819,50.9543294 157.92819,51.3456706 158.230349,51.7067294 C158.290159,51.7975765 158.380263,51.9777176 158.380263,52.1889176 C158.380263,52.8209647 157.778275,53.3644941 157.114924,53.3644941 C156.362245,53.3644941 155.277113,53.0018824 155.668599,50.292 L156.633333,43.3946118" id="Fill-12" fill="#282145" sketch:type="MSShapeGroup"></path>
                <path d="M172.687376,43.7269412 L171.753713,50.3525647 C171.663609,50.9543294 171.813523,51.2548235 172.175492,51.2548235 C172.265596,51.2548235 172.29589,51.2260941 172.417064,51.2260941 C172.928948,51.2260941 173.169743,51.6477176 173.169743,52.0996235 C173.169743,52.9716 172.356477,53.2728706 171.663609,53.2728706 C170.729168,53.2728706 169.975713,52.7604 169.644813,51.8884235 C168.138679,52.7906824 166.812752,53.3644941 165.305841,53.3644941 C162.323865,53.3644941 160.967645,51.0436235 161.450012,47.6714118 L161.99219,43.8465176 C162.504073,40.2623294 164.401694,37.6417412 168.408991,37.6417412 C172.055095,37.6417412 173.23033,39.8112 172.687376,43.7269412 L172.687376,43.7269412 Z M170.45808,42.9427059 C170.759462,40.7740235 170.0363,39.8112 167.956917,39.8112 C165.66781,39.8112 164.73337,40.9844471 164.341884,43.8465176 L163.799706,47.6714118 C163.468031,50.0202353 164.282073,51.2548235 166.08959,51.2548235 C167.324636,51.2548235 168.499872,50.6825647 169.463829,49.9612235 L170.45808,42.9427059 L170.45808,42.9427059 Z" id="Fill-13" fill="#282145" sketch:type="MSShapeGroup"></path>
                <path d="M185.150465,43.3946118 C185.481364,41.1063529 184.698391,39.8112 182.890875,39.8112 C181.715639,39.8112 180.480593,40.2933882 179.365945,41.0752941 C179.365945,41.4060706 179.365945,41.7081176 179.335651,41.9488235 L177.889327,52.1889176 C177.798446,52.8209647 177.346373,53.3334353 176.564177,53.3334353 C175.780428,53.3334353 175.448752,52.8209647 175.538856,52.1889176 L176.985957,41.9488235 C177.225976,40.2933882 176.954887,40.2933882 176.744385,39.8407059 C176.714092,39.7498588 176.593694,39.5697176 176.593694,39.3282353 C176.593694,38.6961882 177.166165,38.1837176 177.85981,38.1837176 C178.401211,38.1837176 178.76318,38.5463294 179.003976,39.0572471 C180.480593,38.1247059 182.076832,37.7030824 183.523933,37.7030824 C186.717187,37.7030824 187.982526,39.9913412 187.500936,43.3946118 L186.536202,50.292 C186.445321,50.9543294 186.445321,51.3456706 186.74748,51.7067294 C186.807291,51.7975765 186.897394,51.9777176 186.897394,52.1889176 C186.897394,52.8209647 186.295407,53.3644941 185.632055,53.3644941 C184.879376,53.3644941 183.794245,53.0018824 184.185731,50.292 L185.150465,43.3946118" id="Fill-14" fill="#282145" sketch:type="MSShapeGroup"></path>
                <path d="M192.400728,34.4193882 C192.490832,33.7873412 192.973199,33.2748706 193.725878,33.2748706 C194.479333,33.2748706 194.841303,33.7873412 194.751199,34.4193882 L194.177951,38.5766118 L197.312171,38.5766118 C197.854349,38.5766118 198.245835,38.9982353 198.245835,39.5394353 C198.245835,40.2623294 197.64307,40.8043059 196.980495,40.8043059 L193.847052,40.8043059 L193.003492,46.7978824 C192.581713,49.9006588 192.732404,51.0436235 194.901113,51.0436235 C195.082098,51.0436235 195.293376,51.0148941 195.473584,51.0148941 C196.106642,51.0148941 196.890391,51.1344706 196.890391,51.9474353 C196.890391,53.0927294 195.925657,53.2425882 194.991994,53.2425882 C190.774196,53.2425882 190.051034,51.1655294 190.622728,47.0083059 L192.400728,34.4193882" id="Fill-15" fill="#282145" sketch:type="MSShapeGroup"></path>
                <path d="M206.773089,50.4418588 C206.832899,50.4115765 206.984367,50.3525647 207.194869,50.3525647 C207.737046,50.3525647 208.098239,50.8044706 208.098239,51.2851059 C208.098239,52.8512471 204.633896,53.3644941 202.946777,53.3644941 C199.542245,53.3644941 197.885419,51.1958118 198.276905,48.3640235 L199.090948,42.7315059 C199.512728,39.8407059 201.711731,37.6417412 205.297248,37.6417412 C208.249706,37.6417412 209.696031,39.2389412 209.696031,41.7384 C209.696031,44.9001882 208.008135,47.0083059 203.911511,47.0083059 C203.007364,47.0083059 201.891939,46.9190118 200.868171,46.7380941 L200.626599,48.5138824 C200.385804,50.2003765 201.349761,51.2851059 203.519248,51.2851059 C204.784587,51.2851059 205.65844,50.9240471 206.773089,50.4418588 L206.773089,50.4418588 Z M204.935278,39.7801412 C202.976294,39.7801412 201.681437,40.8345882 201.440642,42.5210824 L201.108966,44.8108941 C202.223615,44.9607529 203.669939,45.0213176 204.271927,45.0213176 C206.562587,45.0213176 207.34556,43.7859529 207.34556,42.0093882 C207.34556,40.4432471 206.471706,39.7801412 204.935278,39.7801412 L204.935278,39.7801412 Z" id="Fill-16" fill="#282145" sketch:type="MSShapeGroup"></path>
                <path d="M217.154465,37.6417412 C218.660599,37.6417412 220.950483,38.0330824 220.950483,39.2086588 C220.950483,39.8407059 220.378012,40.4129647 219.685144,40.4129647 C219.474642,40.4129647 219.353468,40.3524 219.172483,40.2623294 C218.570495,39.9610588 218.058612,39.7195765 216.97348,39.7195765 C214.894098,39.7195765 213.960434,40.5931059 213.960434,42.1297412 C213.960434,42.8534118 214.322404,43.3340471 215.13567,43.7556706 C216.943187,44.7200471 220.046336,45.0213176 220.046336,48.3337412 C220.046336,51.3456706 218.058612,53.3644941 214.322404,53.3644941 C212.845786,53.3644941 210.134122,53.0321647 210.134122,51.7370118 C210.134122,51.1958118 210.616489,50.5327059 211.399462,50.5327059 C211.580446,50.5327059 211.61074,50.5629882 211.700844,50.5932706 C212.514887,50.9240471 213.418257,51.2851059 214.623786,51.2851059 C216.461596,51.2851059 217.726936,50.5024235 217.726936,48.7250824 C217.726936,47.8818353 217.33545,47.4602118 216.853083,47.1884471 C215.225774,46.2256235 211.61074,45.9849176 211.61074,42.5816471 C211.61074,39.7195765 213.598465,37.6417412 217.154465,37.6417412" id="Fill-17" fill="#282145" sketch:type="MSShapeGroup"></path>
                <path d="M74.8088257,24.2150118 L73.129474,25.1972471 C72.943052,25.3082824 72.7193456,25.4457176 72.5461284,25.4457176 C72.3589297,25.4457176 72.1725076,25.2710118 72.1725076,25.0605882 C72.1725076,24.8858824 72.2719327,24.6995294 72.4707829,24.5884941 L75.1319572,23.0215765 C75.2438104,22.9594588 75.3300306,22.9353882 75.4426606,22.9353882 C75.7409358,22.9353882 75.9397859,23.1706588 75.9025015,23.4696 L74.7831927,31.4361882 C74.7459083,31.6970824 74.4856942,31.9331294 74.2114985,31.9331294 C73.9373028,31.9331294 73.7516575,31.6970824 73.7889419,31.4361882 L74.8088257,24.2150118" id="Fill-21" fill="#282145" sketch:type="MSShapeGroup"></path>
                <path d="M82.5414557,25.6569176 L82.0186972,29.3606824 C81.8198471,30.8018118 80.775107,31.9455529 79.1586728,31.9455529 C77.5422385,31.9455529 76.8214067,30.8018118 77.0202569,29.3606824 L77.5422385,25.6569176 C77.7667217,24.0907765 78.6988318,22.8103765 80.4403242,22.8103765 C82.180263,22.8103765 82.7651621,24.0907765 82.5414557,25.6569176 L82.5414557,25.6569176 Z M78.5372661,25.5575294 L78.0028563,29.3606824 C77.8661468,30.3545647 78.3011315,31.0254353 79.2829541,31.0254353 C80.2655535,31.0254353 80.8993884,30.3545647 81.0360979,29.3606824 L81.5712844,25.5575294 C81.720422,24.4891059 81.3972905,23.7172941 80.3152661,23.7172941 C79.2340183,23.7172941 78.6864037,24.4891059 78.5372661,25.5575294 L78.5372661,25.5575294 Z" id="Fill-22" fill="#282145" sketch:type="MSShapeGroup"></path>
                <path d="M86.0795902,24.2150118 L84.4010153,25.1972471 C84.2145933,25.3082824 83.9908869,25.4457176 83.816893,25.4457176 C83.6304709,25.4457176 83.4440489,25.2710118 83.4440489,25.0605882 C83.4440489,24.8858824 83.543474,24.6995294 83.7423242,24.5884941 L86.4027217,23.0215765 C86.5153517,22.9594588 86.6015719,22.9353882 86.7142018,22.9353882 C87.0117003,22.9353882 87.2105505,23.1706588 87.1732661,23.4696 L86.0547339,31.4361882 C86.0174495,31.6970824 85.7564587,31.9331294 85.4830398,31.9331294 C85.2096208,31.9331294 85.0231988,31.6970824 85.0604832,31.4361882 L86.0795902,24.2150118" id="Fill-23" fill="#282145" sketch:type="MSShapeGroup"></path>
                <path d="M88.6343486,31.9455529 C88.298789,31.9455529 88.0494495,31.6722353 88.0494495,31.3368 C88.0494495,30.9384706 88.4106422,30.6038118 88.8207706,30.6038118 C89.1563303,30.6038118 89.3924648,30.8647059 89.3924648,31.1869412 C89.3924648,31.5976941 89.0320489,31.9455529 88.6343486,31.9455529" id="Fill-24" fill="#282145" sketch:type="MSShapeGroup"></path>
                <path d="M93.6879388,26.6632235 C94.9804648,26.7004941 95.8760673,27.4342588 95.8760673,28.7519294 C95.8760673,30.0812471 94.9183242,31.9331294 92.9166177,31.9331294 C92.4194924,31.9331294 90.6414924,31.8088941 90.6414924,31.0627059 C90.6414924,30.7901647 90.8908318,30.5409176 91.1766789,30.5409176 C91.2628991,30.5409176 91.349896,30.5665412 91.4244648,30.6154588 C91.7608012,30.8274353 92.1212171,31.0378588 92.7682569,31.0378588 C94.3714862,31.0378588 94.8693884,29.7830824 94.8693884,28.8753882 C94.8693884,27.9436235 94.259633,27.5460706 93.3888869,27.5460706 C93.1651804,27.5460706 92.9919633,27.5701412 92.8420489,27.6206118 C92.7682569,27.6454588 92.7301957,27.6951529 92.6183425,27.6951529 C92.295211,27.6951529 92.1212171,27.2603294 92.4070642,26.9365412 L95.0309541,24.0403059 L92.2703547,24.0403059 C92.021792,24.0403059 91.8477982,23.8547294 91.8477982,23.6186824 C91.8477982,23.3205176 92.108789,23.0464235 92.4070642,23.0464235 L95.8760673,23.0464235 C96.1619144,23.0464235 96.3483364,23.2327765 96.3483364,23.5309412 C96.3483364,23.6932235 96.2994006,23.8166824 96.1619144,23.9665412 L93.6879388,26.6632235" id="Fill-25" fill="#282145" sketch:type="MSShapeGroup"></path>
                <path d="M101.676899,25.1467765 C101.900606,23.5689882 102.933694,22.8600706 104.188936,22.8103765 C104.375358,22.7979529 105.245327,22.7979529 105.245327,23.3205176 C105.245327,23.6311059 104.972685,23.8298824 104.698489,23.8298824 C104.487211,23.8298824 104.300789,23.7429176 103.952801,23.7429176 C103.219541,23.7429176 102.758924,24.3392471 102.659498,25.0473882 L102.548422,25.8176471 L103.853376,25.8176471 C104.077083,25.8176471 104.238648,25.9923529 104.238648,26.2159765 C104.238648,26.5141412 103.990086,26.7377647 103.71589,26.7377647 L102.423364,26.7377647 L101.404257,34.0210588 C101.366196,34.2811765 101.167346,34.4939294 100.856642,34.4939294 C100.545939,34.4939294 100.396801,34.2811765 100.434086,34.0210588 L101.676899,25.1467765" id="Fill-26" fill="#282145" sketch:type="MSShapeGroup"></path>
                <path d="M111.935547,27.5701412 C112.034972,26.8752 111.737474,26.3277882 110.978581,26.3277882 C110.443394,26.3277882 109.860049,26.6135294 109.511284,26.9862353 C109.523713,27.1609412 109.523713,27.3465176 109.498856,27.5460706 L108.952018,31.4361882 C108.914734,31.6970824 108.728312,31.9082824 108.404404,31.9082824 C108.081272,31.9082824 107.945339,31.6970824 107.982624,31.4361882 L108.492177,27.8318118 C108.616459,26.9489647 108.554318,26.3277882 107.671144,26.3277882 C107.124306,26.3277882 106.539407,26.5638353 106.154135,26.8247294 C106.154135,26.9745882 106.154135,27.0988235 106.141706,27.2098588 L105.545156,31.4361882 C105.507872,31.6970824 105.32145,31.9082824 104.998318,31.9082824 C104.675187,31.9082824 104.5377,31.6970824 104.575761,31.4361882 L105.171535,27.2098588 C105.271737,26.5273412 105.159884,26.5273412 105.07211,26.3402118 C105.060459,26.3029412 105.009969,26.2284 105.009969,26.1290118 C105.009969,25.8681176 105.246881,25.6569176 105.532728,25.6569176 C105.744006,25.6569176 105.893144,25.7935765 105.992569,25.9923529 C106.577468,25.6444941 107.236159,25.4325176 107.883199,25.4325176 C108.566746,25.4325176 108.976875,25.6569176 109.237865,26.0668941 C109.80956,25.6693412 110.431743,25.4325176 111.127719,25.4325176 C112.470734,25.4325176 113.079713,26.2905176 112.904942,27.5460706 L112.470734,30.6527294 C112.43345,30.9268235 112.43345,31.0883294 112.556954,31.2374118 C112.58181,31.2746824 112.619095,31.3492235 112.619095,31.4361882 C112.619095,31.6970824 112.371309,31.9207059 112.097113,31.9207059 C111.78641,31.9207059 111.338997,31.7716235 111.500563,30.6527294 L111.935547,27.5701412" id="Fill-27" fill="#282145" sketch:type="MSShapeGroup"></path>
            </g>
        </g>
    </g>
</svg>