<?xml version="1.0" encoding="UTF-8" standalone="no"?>
<svg width="25px" height="25px" viewBox="0 0 25 25" version="1.1" xmlns="http://www.w3.org/2000/svg" xmlns:xlink="http://www.w3.org/1999/xlink" xmlns:sketch="http://www.bohemiancoding.com/sketch/ns">
    <!-- Generator: Sketch 3.3.2 (12043) - http://www.bohemiancoding.com/sketch -->
    <title>mail</title>
    <desc>Created with Sketch.</desc>
    <defs></defs>
    <g id="Page-1" stroke="none" stroke-width="1" fill="none" fill-rule="evenodd" sketch:type="MSPage">
        <g id="svg" sketch:type="MSArtboardGroup" transform="translate(-228.000000, -2.000000)" fill="#FFFFFF">
            <g id="Social-icons" sketch:type="MSLayerGroup" transform="translate(74.000000, 5.000000)">
                <path d="M158.111548,6.93191764 C158.389863,7.11365657 159.228726,7.65357323 160.628288,8.55124919 C162.027849,9.44892515 163.099973,10.1401747 163.844808,10.6248583 C163.92663,10.6779992 164.100521,10.7934864 164.366479,10.9714595 C164.632438,11.149572 164.853493,11.293652 165.029342,11.4034207 C165.205342,11.5131893 165.41811,11.6363478 165.667795,11.7726171 C165.917479,11.9088864 166.152849,12.0112628 166.373753,12.0791882 C166.594808,12.1475321 166.799438,12.1814251 166.987644,12.1814251 L167,12.1814251 L167.012356,12.1814251 C167.200562,12.1814251 167.405192,12.1475321 167.626247,12.0791882 C167.847151,12.0112628 168.082671,11.908747 168.332205,11.7726171 C168.58174,11.6362083 168.794507,11.5131893 168.970507,11.4034207 C169.146507,11.293652 169.367411,11.149572 169.63337,10.9714595 C169.899329,10.7933469 170.07337,10.6779992 170.155192,10.6248583 C170.908014,10.1400352 172.82337,8.90900849 175.900658,6.93163868 C176.498123,6.54542602 176.997192,6.07943233 177.398315,5.53393657 C177.799589,4.98871977 178,4.41672333 178,3.8182262 C178,3.31820005 177.805466,2.89014418 177.416699,2.53405862 C177.027932,2.17797305 176.567438,2 176.035671,2 L157.964178,2 C157.334014,2 156.84911,2.19694196 156.509466,2.59082588 C156.169822,2.98484928 156,3.47734365 156,4.06816953 C156,4.54546089 156.225123,5.06264275 156.675219,5.61943616 C157.125315,6.17622958 157.604192,6.6137699 158.111548,6.93191764 Z M176.772219,8.14774134 C174.087918,9.82941925 172.049753,11.1363216 170.65863,12.0681695 C170.19211,12.3863173 169.813589,12.6345869 169.522918,12.8124205 C169.232397,12.990533 168.84574,13.1722719 168.362795,13.3579162 C167.88,13.5435605 167.429904,13.6363129 167.012507,13.6363129 L167,13.6363129 L166.987644,13.6363129 C166.570247,13.6363129 166.12,13.5435605 165.637205,13.3579162 C165.154411,13.1722719 164.767603,12.990533 164.477082,12.8124205 C164.186562,12.6345869 163.808041,12.3863173 163.341521,12.0681695 C162.236548,11.3182 160.202753,10.0112977 157.239986,8.14774134 C156.773466,7.85999965 156.360137,7.53027529 156,7.15912617 L156,16.1816343 C156,16.6818 156.192274,17.1097163 156.576973,17.4658019 C156.961671,17.822027 157.424123,18 157.964329,18 L176.035822,18 C176.575877,18 177.038329,17.822027 177.423027,17.4658019 C177.807877,17.1095769 178,16.6818 178,16.1816343 L178,7.15912617 C177.648,7.52260404 177.23889,7.8523284 176.772219,8.14774134 Z" id="Shape" sketch:type="MSShapeGroup"></path>
            </g>
        </g>
    </g>
</svg>