<?xml version="1.0" encoding="UTF-8" standalone="no"?>
<svg width="21px" height="29px" viewBox="0 0 21 29" version="1.1" xmlns="http://www.w3.org/2000/svg" xmlns:xlink="http://www.w3.org/1999/xlink" xmlns:sketch="http://www.bohemiancoding.com/sketch/ns">
    <!-- Generator: Sketch 3.3.2 (12043) - http://www.bohemiancoding.com/sketch -->
    <title>svg copy</title>
    <desc>Created with Sketch.</desc>
    <defs></defs>
    <g id="Page-1" stroke="none" stroke-width="1" fill="none" fill-rule="evenodd" sketch:type="MSPage">
        <g id="svg" sketch:type="MSArtboardGroup" transform="translate(-41.000000, 0.000000)" fill="#FFFFFF">
            <path d="M57.8,25.45 C56.25,25.45 55,24.25 55,22.775 L55,5.675 C55,4.2 56.25,3 57.8,3 C59.35,3 60.6,4.2 60.6,5.675 L60.6,22.775 C60.6,24.25 59.35,25.45 57.8,25.45" id="Shape-Copy-2" sketch:type="MSShapeGroup"></path>
            <path d="M44.8,25.45 C43.25,25.45 42,24.25 42,22.775 L42,5.675 C42,4.2 43.25,3 44.8,3 C46.35,3 47.6,4.2 47.6,5.675 L47.6,22.775 C47.6,24.25 46.35,25.45 44.8,25.45" id="Shape-Copy" sketch:type="MSShapeGroup"></path>
        </g>
    </g>
</svg>