<?xml version="1.0" encoding="UTF-8" standalone="no"?>
<svg width="25px" height="25px" viewBox="0 0 25 25" version="1.1" xmlns="http://www.w3.org/2000/svg" xmlns:xlink="http://www.w3.org/1999/xlink" xmlns:sketch="http://www.bohemiancoding.com/sketch/ns">
    <!-- Generator: Sketch 3.3.2 (12043) - http://www.bohemiancoding.com/sketch -->
    <title>twitter</title>
    <desc>Created with Sketch.</desc>
    <defs></defs>
    <g id="Page-1" stroke="none" stroke-width="1" fill="none" fill-rule="evenodd" sketch:type="MSPage">
        <g id="svg" sketch:type="MSArtboardGroup" transform="translate(-102.000000, -2.000000)" fill="#FFFFFF">
            <g id="Social-icons" sketch:type="MSLayerGroup" transform="translate(74.000000, 5.000000)">
                <path d="M48.526149,3.84573162 C49.4160944,3.28412538 50.0989611,2.39361548 50.41944,1.3328037 C49.5861948,1.85410949 48.6654341,2.23111368 47.6830428,2.43521595 C46.899102,1.55120612 45.7786582,1 44.5386512,1 C42.1597112,1 40.231907,3.03452261 40.231907,5.54355048 C40.231907,5.89975444 40.2676528,6.2468583 40.3416094,6.57836198 C36.762106,6.38855987 33.5881317,4.58153979 31.4618771,1.83070923 C31.0908611,2.50411671 30.8788519,3.28412538 30.8788519,4.11613462 C30.8788519,5.69175213 31.6393731,7.08276759 32.7955626,7.89917666 C32.0892763,7.8757764 31.4248987,7.6690741 30.8431062,7.33107035 L30.8431062,7.38697097 C30.8431062,9.58919544 32.3271703,11.4261158 34.3005811,11.8421205 C33.9381933,11.9487217 33.558549,12.0020222 33.1641134,12.0020222 C32.8867758,12.0020222 32.6156013,11.9747219 32.3542877,11.9214213 C32.9015672,13.7258414 34.4928685,15.041456 36.3787639,15.0765564 C34.9033281,16.29597 33.0457827,17.021378 31.0279979,17.021378 C30.6804015,17.021378 30.3365029,17.0018778 30,16.9589773 C31.9068498,18.2472916 34.1711569,19 36.6043317,19 C44.5300229,19 48.8614193,12.0761231 48.8614193,6.07135635 C48.8614193,5.87375415 48.858954,5.67745197 48.8503258,5.48374982 C49.6921993,4.8428427 50.4243705,4.0420338 51,3.13072367 C50.2271527,3.49212769 49.3963726,3.73653041 48.526149,3.84573162 Z" id="Shape" sketch:type="MSShapeGroup"></path>
            </g>
        </g>
    </g>
</svg>