<svg width="25" height="25" viewBox="0 0 25 25" xmlns="http://www.w3.org/2000/svg"><title>download</title><path d="M17.615 18.808c0 .4-.33.73-.73.73-.4 0-.73-.33-.73-.73 0-.4.33-.73.73-.73.4 0 .73.33.73.73zm2.923 0c0 .4-.33.73-.73.73-.4 0-.73-.33-.73-.73 0-.4.33-.73.73-.73.4 0 .73.33.73.73zM22 16.25c0-.605-.49-1.096-1.096-1.096h-5.298l-1.553 1.553c-.423.41-.97.64-1.553.64-.582 0-1.13-.23-1.553-.64l-1.54-1.553h-5.31c-.606 0-1.097.49-1.097 1.096v3.654C3 20.51 3.49 21 4.096 21h16.808C21.51 21 22 20.51 22 19.904V16.25zm-3.71-6.497a.74.74 0 0 0-.675-.445h-2.923V4.192c0-.4-.33-.73-.73-.73h-2.924c-.4 0-.73.33-.73.73v5.116H7.385a.74.74 0 0 0-.674.445.718.718 0 0 0 .16.8l5.116 5.115a.7.7 0 0 0 .514.217.7.7 0 0 0 .514-.217l5.115-5.116a.718.718 0 0 0 .16-.8z" fill="#FFF" fill-rule="evenodd"/></svg>