<svg width="25" height="25" viewBox="0 0 25 25" xmlns="http://www.w3.org/2000/svg"><title>embed</title><path d="M4.612 13.072l4.27-1.974c.35-.168.616-.504.616-.826 0-.49-.378-.91-.952-.91-.084 0-.322.028-.448.098l-5.586 2.688c-.392.196-.7.364-.7.924 0 .546.322.728.714.924l5.572 2.674c.14.07.392.098.448.098.574 0 .952-.406.952-.91 0-.308-.252-.644-.616-.812l-4.27-1.974zm10.878-4.48a.738.738 0 0 0 .07-.21c.042-.434-.294-.896-.77-.98a.92.92 0 0 0-1.05.574l-3.654 9.632c-.154.448.252.91.756 1.008.448.07.896-.154 1.064-.588l3.584-9.436zm1.288 6.454c-.364.168-.616.504-.616.812 0 .504.378.91.952.91.056 0 .308-.028.448-.098l5.572-2.674c.392-.196.714-.378.714-.924 0-.56-.308-.728-.7-.924L17.562 9.46c-.126-.07-.364-.098-.448-.098-.574 0-.952.42-.952.91 0 .322.266.658.616.826l4.27 1.974-4.27 1.974z" fill="#FFF" fill-rule="evenodd"/></svg>