<svg width="25" height="25" viewBox="0 0 25 25" xmlns="http://www.w3.org/2000/svg"><title>google</title><path d="M9.583 21.11c-2.098 0-3.612-1.355-3.612-2.98 0-1.596 1.88-2.924 3.977-2.9a4.52 4.52 0 0 1 1.36.22c1.136.81 1.954 1.266 2.184 2.187.045.187.068.377.068.574 0 1.63-1.027 2.9-3.975 2.9m.55-9.542c-1.407-.043-2.745-1.606-2.987-3.492-.243-1.886.7-3.33 2.108-3.288C10.66 4.832 12 6.344 12.242 8.23c.243 1.887-.7 3.38-2.108 3.338m2.917 2.793c-.492-.356-1.435-1.222-1.435-1.733 0-.6.167-.892 1.047-1.594.904-.72 1.544-1.734 1.544-2.91 0-1.404-.612-2.77-1.76-3.22h1.73L15.4 4H9.935C7.488 4 5.182 5.893 5.182 8.086c0 2.242 1.67 4.05 4.16 4.05.176 0 .343-.003.508-.015-.16.316-.278.673-.278 1.04 0 .624.328 1.13.744 1.542-.314 0-.618.01-.947.01-3.034 0-5.37 1.97-5.37 4.016C4 20.74 6.56 22 9.593 22c3.458 0 5.37-2.002 5.37-4.016 0-1.614-.468-2.582-1.912-3.623M21 11.733h-2.126v-2.17H17.16v2.17h-2.125v1.747h2.126v2.17h1.714v-2.17H21V11.73" fill="#FFF" fill-rule="evenodd"/></svg>