<svg width="25" height="25" viewBox="0 0 25 25" xmlns="http://www.w3.org/2000/svg"><title>google</title><path d="M9.583 21.11c-2.098 0-3.612-1.355-3.612-2.981 0-1.595 1.879-2.923 3.976-2.9.489.006.945.086 1.359.222 1.137.809 1.955 1.265 2.185 2.186.044.187.067.377.067.574 0 1.628-1.027 2.899-3.975 2.899m.55-9.542c-1.407-.043-2.745-1.606-2.987-3.492-.243-1.886.7-3.33 2.108-3.288 1.407.044 2.746 1.556 2.988 3.443.243 1.886-.7 3.38-2.108 3.337m2.917 2.793c-.493-.357-1.436-1.223-1.436-1.734 0-.599.167-.892 1.047-1.594.904-.721 1.544-1.734 1.544-2.91 0-1.404-.612-2.77-1.761-3.221h1.732L15.399 4H9.936C7.488 4 5.182 5.893 5.182 8.086c0 2.242 1.67 4.05 4.161 4.05.175 0 .342-.003.507-.015-.161.315-.278.672-.278 1.04 0 .623.328 1.13.744 1.54-.314 0-.618.01-.947.01-3.033 0-5.369 1.97-5.369 4.017C4 20.74 6.56 22 9.593 22c3.458 0 5.37-2.002 5.37-4.016 0-1.614-.468-2.582-1.912-3.623M21 11.732h-2.126v-2.17H17.16v2.17h-2.126v1.747h2.126v2.17h1.713v-2.17H21v-1.747" fill="#FFF" fill-rule="evenodd"/></svg>