<svg width="24" height="21" viewBox="0 0 24 21" xmlns="http://www.w3.org/2000/svg"><title>home</title><g fill="#282245" fill-rule="evenodd"><path d="M12.966 5.51c-.92-.58-1.143-.562-2.022 0-.63.4-6.758 4.38-6.758 4.38v7.93c0 1.17.41 1.96 1.806 1.96h3.382v-6.456h5.25v6.456h3.59c1.228 0 1.6-.614 1.6-1.76V9.89s-6.218-3.985-6.848-4.38z"/><path d="M12.46 3.46c.532.34 8.407 5.228 8.754 5.442.165.103.348.15.53.15.333 0 .658-.163.848-.46.294-.46.152-1.068-.315-1.356-2.355-1.454-8.537-5.32-8.973-5.561-1.076-.598-1.537-.614-2.608 0-.433.248-6.618 4.107-8.973 5.56-.468.29-.61.897-.315 1.357.19.297.515.46.848.46.182 0 .365-.048.53-.15.347-.214 8.245-5.11 8.783-5.442.262-.162.61-.178.89 0z"/></g></svg>