<svg width="20" height="20" viewBox="0 0 20 20" xmlns="http://www.w3.org/2000/svg"><title>info</title><path d="M10 17a7 7 0 1 0 0-14 7 7 0 0 0 0 14zm2.007-3.897l-.13.53c-.394.154-.708.27-.942.35a2.51 2.51 0 0 1-.817.122c-.476 0-.847-.115-1.11-.345a1.11 1.11 0 0 1-.397-.875c0-.138.01-.278.03-.422.02-.143.052-.305.096-.486l.49-1.722c.042-.165.08-.32.11-.468.03-.148.044-.282.044-.404 0-.22-.046-.374-.137-.46-.092-.086-.267-.13-.525-.13-.127 0-.257.02-.39.06a5.39 5.39 0 0 0-.343.11l.13-.53c.323-.13.63-.24.925-.332.294-.092.572-.138.834-.138.473 0 .837.113 1.093.34.257.225.385.52.385.88 0 .075-.01.207-.027.395a2.65 2.65 0 0 1-.098.52l-.49 1.715c-.04.137-.074.295-.106.47a2.48 2.48 0 0 0-.047.402c0 .228.052.384.155.466.103.083.282.124.536.124.12 0 .255-.02.405-.062.15-.04.26-.078.327-.11 0 0-.067.032 0 0zm.125-7.2a1 1 0 0 1-.342.765c-.23.21-.504.315-.826.315-.32 0-.597-.105-.828-.315a.996.996 0 0 1-.345-.764c0-.298.116-.554.346-.766a1.18 1.18 0 0 1 .828-.318c.322 0 .597.106.826.318.228.212.342.468.342.766 0 0 0-.298 0 0z" fill="#D32354" fill-rule="evenodd"/></svg>