<svg width="20" height="20" viewBox="0 0 20 20" xmlns="http://www.w3.org/2000/svg"><title>info</title><path d="M10 17a7 7 0 1 0 0-14 7 7 0 0 0 0 14zm2.007-3.897l-.13.53c-.394.154-.708.27-.942.351a2.51 2.51 0 0 1-.817.121c-.476 0-.847-.115-1.11-.345a1.11 1.11 0 0 1-.397-.875c0-.138.01-.278.03-.422.02-.143.051-.305.095-.486l.489-1.722a8.14 8.14 0 0 0 .11-.468c.03-.148.045-.282.045-.404 0-.22-.046-.374-.137-.46-.092-.086-.267-.13-.525-.13-.127 0-.257.02-.39.06-.133.039-.247.076-.343.111l.131-.53c.322-.13.63-.241.924-.333.294-.093.572-.139.834-.139.473 0 .837.113 1.093.339.257.226.385.52.385.881 0 .075-.01.207-.027.395a2.65 2.65 0 0 1-.098.52l-.489 1.715c-.04.137-.075.295-.107.471-.032.177-.048.31-.048.401 0 .228.052.384.155.466.103.083.282.124.536.124.12 0 .255-.02.405-.062.151-.041.26-.078.328-.11 0 0-.067.032 0 0zm.125-7.199a1 1 0 0 1-.342.764c-.229.21-.504.315-.826.315-.321 0-.597-.105-.828-.315a.996.996 0 0 1-.345-.764c0-.298.115-.554.345-.766a1.18 1.18 0 0 1 .828-.318c.322 0 .597.106.826.318.228.212.342.468.342.766 0 0 0-.298 0 0z" fill="#D32354" fill-rule="evenodd"/></svg>