<svg width="254" height="66" viewBox="0 0 254 66" xmlns="http://www.w3.org/2000/svg"><title>logo</title><g fill="none" fill-rule="evenodd"><path d="M41.564 10.505L60.42.305l7.847 24.117c1.146 3.527-1.484 7.145-5.193 7.145H48.417l-6.853-21.062M12.534 31.567L9.25 10.505h32.314L34.71 31.567H12.534" fill="#eb1d5d"/><path d="M12.534 31.567l17.943 13-6.855 21.08H.307l12.227-34.08M59.505 65.647L35.99 62.175c-2.304-.34-3.03-3.303-1.147-4.67l6.72-4.876 17.942 13.017M54.432 47.188l-.15.996c-.152 1.023.542 1.686 2.17 1.686.963 0 1.806-.24 2.83-.663.12-.06.392-.18.904-.18 1.296 0 1.657.813 1.657 1.445 0 2.288-4.157 2.86-6.176 2.86-3.977 0-5.935-2.288-5.513-5.27l.693-5.028c.42-3.043 2.982-5.36 7.17-5.36 3.556 0 5.272 1.776 5.272 4.395 0 3.252-1.96 5.3-6.57 5.3-.78 0-1.444-.06-2.288-.182zm3.103-6.293c-1.446 0-2.32.753-2.5 1.958l-.18 1.295c.963.09 1.866.12 2.168.12 1.295 0 2.11-.482 2.11-2.017 0-.964-.543-1.355-1.598-1.355zM69.956 53.333c-3.646 0-5.273-2.38-4.79-5.903l1.114-7.86c.15-1.024 1.025-1.808 2.35-1.808 1.326 0 1.96.784 1.808 1.808l-1.115 7.86c-.21 1.537.302 2.41 1.628 2.41.633 0 1.416-.21 2.41-.633 0-.21 0-.39.03-.57l1.266-9.067c.15-1.024.964-1.808 2.35-1.808 1.386 0 1.958.784 1.808 1.808l-1.356 9.668c-.06.45.09.663.422 1.054.21.24.3.512.3.812 0 1.326-1.204 2.05-2.198 2.05-.784 0-1.326-.483-1.688-1.146-1.566.994-2.982 1.325-4.338 1.325" fill="#eb1d5d"/><path d="M86.52 41.8c0 .21 0 .39-.03.57l-1.266 9.095c-.15 1.056-1.175 1.868-2.35 1.868s-1.958-.812-1.808-1.868l1.266-9.095c.09-.692.09-1.053-.12-1.414-.15-.27-.302-.482-.302-.815 0-1.173 1.145-1.985 2.32-1.985.632 0 1.115.39 1.477.933 1.476-.813 2.952-1.296 3.916-1.296 1.687 0 2.23.663 2.23 1.536 0 1.326-1.176 2.23-2.41 2.17-1.296-.062-1.808-.12-2.923.3M91.546 47.43l.482-3.403c.513-3.584 2.983-6.354 7.29-6.354 4.37 0 5.847 2.168 5.273 6.234l-.78 5.602c-.122.902.33.812.812 1.023.362.15.543.42.543.904 0 1.084-.603 1.806-2.412 1.806-1.113 0-1.807-.3-2.38-1.265-1.235.904-2.44 1.355-4.127 1.355-3.495 0-5.182-2.38-4.7-5.903zm8.978-4.216c.21-1.415-.39-1.988-1.928-1.988-1.476 0-2.14.934-2.41 2.8l-.482 3.404c-.212 1.567.33 2.41 1.627 2.41.633 0 1.417-.21 2.41-.633 0-.21 0-.39.03-.57l.754-5.423zM117.03 38.365l.724-5.15c.15-1.025.994-1.837 2.32-1.837 1.326 0 1.99.843 1.837 1.837l-2.258 16.023c-.06.45.09.663.422 1.054.21.24.302.512.302.812 0 1.326-1.236 2.05-2.23 2.05-.754 0-1.296-.483-1.657-1.146-1.598.813-2.894 1.325-4.43 1.325-3.495 0-5.182-2.38-4.7-5.903l.482-3.403c.512-3.584 2.29-6.235 6.598-6.235.933 0 1.567.122 2.59.573zm-.45 3.252c-.905-.27-1.66-.39-2.17-.39-1.476 0-2.14.933-2.41 2.8l-.483 3.403c-.21 1.567.332 2.41 1.627 2.41.633 0 1.416-.21 2.41-.633 0-.21 0-.39.03-.57l.995-7.02zM125.053 39.6c.15-.993 1.176-1.838 2.35-1.838 1.175 0 1.96.845 1.808 1.838l-1.385 9.818c-.09.633-.09.782.27 1.234.212.272.393.452.393.874 0 1.175-.934 1.807-2.5 1.807-1.206 0-2.833-.39-2.38-3.554l1.445-10.18zm2.62-3.766c-1.234 0-2.077-.842-2.077-1.897 0-1.264 1.235-2.318 2.68-2.318 1.206 0 2.05.842 2.05 1.896 0 1.264-1.205 2.318-2.652 2.318zM131.326 47.732l.633-4.488c.42-3.162 3.042-5.602 7.32-5.602 4.278 0 6.177 2.44 5.755 5.602l-.633 4.488c-.452 3.162-3.043 5.6-7.32 5.6-4.28 0-6.208-2.438-5.756-5.6zm8.92 0l.63-4.518c.182-1.234-.54-2.018-2.108-2.018-1.567 0-2.47.784-2.65 2.018l-.634 4.518c-.18 1.265.512 2.047 2.08 2.047 1.565 0 2.5-.783 2.68-2.048zM156.633 43.395c.33-2.29-.452-3.584-2.26-3.584-1.174 0-2.41.483-3.524 1.265 0 .33 0 .633-.03.874l-1.448 10.24c-.09.63-.543 1.143-1.325 1.143-.784 0-1.115-.512-1.025-1.144l1.447-10.24c.24-1.657-.03-1.657-.243-2.11-.03-.09-.15-.27-.15-.512 0-.632.572-1.144 1.266-1.144.54 0 .903.362 1.144.873 1.476-.932 3.073-1.354 4.52-1.354 3.193 0 4.458 2.288 3.977 5.692l-.964 6.897c-.092.662-.092 1.054.21 1.415.06.09.15.27.15.482 0 .63-.602 1.174-1.265 1.174-.753 0-1.838-.362-1.446-3.072l.963-6.897M172.687 43.727l-.933 6.626c-.09.6.06.902.42.902.092 0 .122-.03.243-.03.512 0 .753.423.753.875 0 .872-.814 1.173-1.506 1.173-.935 0-1.688-.513-2.02-1.385-1.505.903-2.83 1.476-4.338 1.476-2.982 0-4.338-2.32-3.856-5.693l.542-3.823c.512-3.585 2.41-6.205 6.417-6.205 3.645 0 4.82 2.17 4.277 6.085zm-2.23-.784c.302-2.17-.42-3.132-2.5-3.132-2.29 0-3.224 1.174-3.615 4.037l-.542 3.824c-.332 2.35.482 3.585 2.29 3.585 1.235 0 2.41-.572 3.374-1.294l.994-7.017zM185.15 43.395c.33-2.29-.452-3.584-2.26-3.584-1.174 0-2.41.483-3.524 1.265 0 .33 0 .633-.03.874l-1.447 10.24c-.092.63-.544 1.143-1.326 1.143-.784 0-1.115-.512-1.025-1.144l1.446-10.24c.24-1.657-.03-1.657-.242-2.11-.03-.09-.15-.27-.15-.512 0-.632.572-1.144 1.266-1.144.54 0 .903.362 1.144.873 1.477-.932 3.073-1.354 4.52-1.354 3.193 0 4.46 2.288 3.977 5.692l-.964 6.897c-.09.662-.09 1.054.21 1.415.06.09.15.27.15.482 0 .63-.6 1.174-1.264 1.174-.753 0-1.838-.362-1.446-3.072l.964-6.897M192.4 34.42c.09-.633.573-1.145 1.326-1.145.753 0 1.115.512 1.025 1.144l-.572 4.157h3.134c.542 0 .934.42.934.962 0 .722-.603 1.264-1.266 1.264h-3.133l-.844 5.994c-.42 3.103-.27 4.246 1.898 4.246.182 0 .393-.03.574-.03.633 0 1.416.12 1.416.933 0 1.146-.964 1.296-1.898 1.296-4.218 0-4.94-2.077-4.37-6.235l1.78-12.59M206.773 50.442a.97.97 0 0 1 .422-.09c.542 0 .903.452.903.933 0 1.566-3.464 2.08-5.15 2.08-3.406 0-5.063-2.17-4.67-5l.813-5.633c.423-2.89 2.622-5.09 6.207-5.09 2.953 0 4.4 1.597 4.4 4.096 0 3.162-1.69 5.27-5.785 5.27-.905 0-2.02-.09-3.044-.27l-.24 1.776c-.242 1.686.722 2.77 2.89 2.77 1.267 0 2.14-.36 3.255-.842zm-1.838-10.662c-1.96 0-3.254 1.055-3.494 2.74l-.33 2.29c1.114.15 2.56.21 3.162.21 2.29 0 3.074-1.234 3.074-3.01 0-1.567-.874-2.23-2.41-2.23zM217.154 37.642c1.507 0 3.796.39 3.796 1.567 0 .63-.572 1.203-1.265 1.203-.21 0-.332-.06-.513-.15-.602-.302-1.113-.543-2.2-.543-2.078 0-3.012.873-3.012 2.41 0 .723.362 1.204 1.176 1.626 1.807.964 4.91 1.265 4.91 4.578 0 3.012-1.987 5.03-5.724 5.03-1.476 0-4.188-.332-4.188-1.627 0-.54.482-1.204 1.265-1.204.18 0 .21.03.3.06.815.33 1.718.692 2.924.692 1.838 0 3.103-.783 3.103-2.56 0-.843-.392-1.265-.874-1.537-1.627-.962-5.242-1.203-5.242-4.606 0-2.862 1.988-4.94 5.544-4.94M74.81 24.215l-1.68.982c-.187.11-.41.25-.584.25a.394.394 0 0 1-.373-.386c0-.174.1-.36.298-.472l2.662-1.566a.587.587 0 0 1 .31-.087c.3 0 .498.236.46.535l-1.12 7.966a.61.61 0 0 1-.57.497.425.425 0 0 1-.423-.497l1.02-7.22M82.54 25.657l-.52 3.704c-.2 1.442-1.245 2.586-2.86 2.586-1.618 0-2.34-1.144-2.14-2.585l.522-3.703c.225-1.566 1.157-2.847 2.898-2.847 1.74 0 2.325 1.28 2.1 2.847zm-4.003-.1l-.534 3.804c-.137.995.298 1.665 1.28 1.665.983 0 1.616-.67 1.753-1.664l.535-3.802c.15-1.07-.173-1.84-1.255-1.84-1.08 0-1.63.77-1.778 1.84zM86.08 24.215l-1.68.982c-.185.11-.41.25-.583.25a.394.394 0 0 1-.373-.386c0-.174.1-.36.298-.472l2.66-1.566a.592.592 0 0 1 .312-.087c.298 0 .497.236.46.535l-1.12 7.966a.61.61 0 0 1-.57.497.426.426 0 0 1-.424-.497l1.02-7.22M88.634 31.946c-.335 0-.585-.274-.585-.61 0-.398.36-.732.77-.732.336 0 .572.26.572.583 0 .41-.36.76-.758.76M93.688 26.663c1.292.037 2.188.77 2.188 2.09 0 1.328-.958 3.18-2.96 3.18-.497 0-2.275-.124-2.275-.87 0-.273.25-.522.537-.522.086 0 .173.027.247.075.337.212.697.423 1.344.423 1.603 0 2.1-1.255 2.1-2.163 0-.93-.608-1.33-1.48-1.33a1.69 1.69 0 0 0-.546.076c-.074.025-.112.075-.224.075-.323 0-.497-.435-.21-.758l2.623-2.897h-2.76a.41.41 0 0 1-.422-.42c0-.3.26-.574.56-.574h3.468c.286 0 .472.187.472.485 0 .163-.05.287-.186.437l-2.474 2.696M101.677 25.147c.224-1.578 1.257-2.287 2.512-2.337.185-.012 1.055-.012 1.055.51 0 .31-.272.51-.547.51-.21 0-.397-.087-.745-.087-.733 0-1.194.596-1.294 1.304l-.112.77h1.305c.224 0 .386.175.386.4 0 .297-.25.52-.524.52h-1.293l-1.02 7.284a.535.535 0 0 1-.546.474c-.31 0-.46-.213-.423-.473l1.243-8.873M111.936 27.57c.1-.695-.2-1.242-.957-1.242-.537 0-1.12.286-1.47.658.014.175.014.36-.01.56l-.548 3.89a.524.524 0 0 1-.548.472c-.323 0-.46-.21-.42-.472l.508-3.604c.124-.883.062-1.504-.82-1.504-.548 0-1.133.236-1.518.497 0 .15 0 .274-.012.385l-.597 4.226a.524.524 0 0 1-.547.472c-.323 0-.46-.21-.422-.472l.596-4.226c.1-.683-.012-.683-.1-.87-.012-.037-.062-.112-.062-.21 0-.262.237-.473.523-.473.21 0 .36.137.46.335.584-.348 1.243-.56 1.89-.56.684 0 1.094.225 1.355.635.572-.398 1.194-.634 1.89-.634 1.343 0 1.952.858 1.777 2.113l-.434 3.107c-.037.274-.037.435.087.584a.375.375 0 0 1 .062.2c0 .26-.25.484-.523.484-.31 0-.758-.148-.596-1.267l.436-3.083" fill="#282145"/></g></svg>