<svg width="254" height="66" viewBox="0 0 254 66" xmlns="http://www.w3.org/2000/svg"><title>logo</title><g fill="none" fill-rule="evenodd"><path d="M41.564 10.505L60.419.305l7.848 24.117c1.146 3.527-1.484 7.145-5.193 7.145H48.417l-6.853-21.062M12.534 31.567L9.25 10.505h32.313L34.71 31.567H12.534" fill="#eb1d5d"/><path d="M12.534 31.567l17.943 13-6.855 21.08H.307l12.227-34.08M59.505 65.647L35.99 62.175c-2.303-.34-3.03-3.303-1.146-4.67l6.72-4.876 17.942 13.018M54.432 47.188l-.15.996c-.152 1.023.542 1.686 2.169 1.686.964 0 1.807-.241 2.831-.663.121-.06.392-.18.904-.18 1.296 0 1.657.813 1.657 1.445 0 2.288-4.157 2.861-6.176 2.861-3.977 0-5.935-2.29-5.513-5.271l.693-5.028c.421-3.043 2.982-5.361 7.17-5.361 3.556 0 5.272 1.777 5.272 4.396 0 3.253-1.958 5.302-6.568 5.302-.782 0-1.445-.06-2.289-.183zm3.103-6.293c-1.446 0-2.32.753-2.5 1.958l-.181 1.295c.964.09 1.867.12 2.169.12 1.295 0 2.11-.482 2.11-2.017 0-.965-.543-1.356-1.598-1.356zM69.956 53.333c-3.646 0-5.273-2.379-4.79-5.903l1.114-7.86c.15-1.024 1.025-1.808 2.35-1.808 1.326 0 1.959.784 1.808 1.808l-1.115 7.86c-.21 1.537.302 2.41 1.628 2.41.632 0 1.415-.211 2.41-.633 0-.21 0-.391.03-.571l1.265-9.066c.151-1.024.964-1.808 2.35-1.808 1.386 0 1.958.784 1.808 1.808l-1.356 9.668c-.06.451.09.663.422 1.054.21.24.3.512.3.812 0 1.326-1.204 2.05-2.198 2.05-.784 0-1.326-.483-1.688-1.146-1.566.994-2.982 1.325-4.338 1.325" fill="#eb1d5d"/><path d="M86.52 41.799c0 .21 0 .391-.03.571l-1.266 9.095c-.151 1.056-1.175 1.868-2.35 1.868s-1.958-.812-1.808-1.868l1.266-9.095c.09-.692.09-1.053-.12-1.414-.151-.271-.302-.482-.302-.815 0-1.174 1.145-1.986 2.32-1.986.632 0 1.115.391 1.477.933 1.476-.813 2.952-1.296 3.916-1.296 1.687 0 2.23.663 2.23 1.536 0 1.326-1.176 2.23-2.41 2.169-1.296-.06-1.808-.12-2.923.302M91.546 47.43l.482-3.403c.513-3.584 2.983-6.354 7.29-6.354 4.37 0 5.847 2.168 5.273 6.234l-.782 5.602c-.121.903.33.813.813 1.024.362.15.543.421.543.904 0 1.084-.603 1.806-2.412 1.806-1.113 0-1.807-.3-2.379-1.265-1.236.904-2.441 1.355-4.128 1.355-3.495 0-5.182-2.379-4.7-5.903zm8.978-4.216c.21-1.415-.391-1.988-1.928-1.988-1.476 0-2.139.934-2.41 2.8l-.482 3.404c-.212 1.567.331 2.41 1.627 2.41.632 0 1.416-.211 2.41-.633 0-.21 0-.391.03-.571l.753-5.422zM117.031 38.365l.723-5.15c.15-1.025.994-1.837 2.32-1.837 1.326 0 1.989.843 1.837 1.837l-2.26 16.023c-.059.451.091.663.423 1.054.21.24.302.512.302.812 0 1.326-1.236 2.05-2.23 2.05-.754 0-1.296-.483-1.657-1.146-1.597.813-2.893 1.325-4.43 1.325-3.494 0-5.18-2.379-4.7-5.903l.483-3.403c.512-3.584 2.29-6.235 6.598-6.235.933 0 1.567.122 2.591.573zm-.452 3.252c-.904-.27-1.658-.391-2.17-.391-1.475 0-2.139.934-2.41 2.8l-.482 3.404c-.21 1.567.332 2.41 1.627 2.41.633 0 1.416-.211 2.411-.633 0-.21 0-.391.03-.571l.994-7.019zM125.053 39.6c.15-.993 1.176-1.838 2.35-1.838 1.175 0 1.96.845 1.808 1.838l-1.386 9.818c-.09.633-.09.782.271 1.234.211.272.392.452.392.874 0 1.175-.934 1.807-2.5 1.807-1.206 0-2.833-.39-2.38-3.554l1.445-10.179zm2.621-3.766c-1.235 0-2.078-.842-2.078-1.897 0-1.264 1.235-2.318 2.681-2.318 1.205 0 2.05.843 2.05 1.897 0 1.264-1.206 2.318-2.653 2.318zM131.326 47.732l.633-4.488c.422-3.162 3.043-5.602 7.322-5.602 4.277 0 6.176 2.44 5.754 5.602l-.633 4.488c-.452 3.162-3.043 5.601-7.321 5.601s-6.207-2.44-5.755-5.601zm8.919 0l.632-4.518c.18-1.234-.542-2.018-2.11-2.018-1.566 0-2.47.784-2.65 2.018l-.633 4.518c-.181 1.265.512 2.047 2.08 2.047 1.565 0 2.5-.782 2.68-2.047zM156.633 43.395c.331-2.289-.452-3.584-2.26-3.584-1.174 0-2.41.482-3.524 1.264 0 .331 0 .633-.03.874l-1.447 10.24c-.09.632-.543 1.144-1.325 1.144-.784 0-1.115-.512-1.025-1.144l1.447-10.24c.24-1.656-.03-1.656-.242-2.108-.03-.091-.15-.271-.15-.513 0-.632.572-1.144 1.266-1.144.541 0 .903.362 1.144.873 1.476-.932 3.073-1.354 4.52-1.354 3.193 0 4.458 2.288 3.977 5.692l-.964 6.897c-.092.662-.092 1.054.21 1.415.06.09.15.27.15.482 0 .632-.602 1.175-1.265 1.175-.753 0-1.838-.362-1.446-3.072l.964-6.897M172.687 43.727l-.933 6.626c-.09.601.06.902.421.902.09 0 .12-.029.242-.029.512 0 .753.422.753.874 0 .872-.814 1.173-1.506 1.173-.935 0-1.688-.513-2.02-1.385-1.505.903-2.831 1.476-4.338 1.476-2.982 0-4.338-2.32-3.856-5.693l.542-3.824c.512-3.585 2.41-6.205 6.417-6.205 3.646 0 4.821 2.17 4.278 6.085zm-2.229-.784c.301-2.169-.422-3.132-2.501-3.132-2.29 0-3.224 1.173-3.615 4.036l-.542 3.824c-.332 2.35.482 3.584 2.29 3.584 1.235 0 2.41-.572 3.374-1.294l.994-7.018zM185.15 43.395c.331-2.289-.452-3.584-2.26-3.584-1.174 0-2.41.482-3.524 1.264 0 .331 0 .633-.03.874l-1.447 10.24c-.09.632-.543 1.144-1.325 1.144-.784 0-1.115-.512-1.025-1.144l1.447-10.24c.24-1.656-.031-1.656-.242-2.108-.03-.091-.15-.271-.15-.513 0-.632.572-1.144 1.266-1.144.541 0 .903.362 1.144.873 1.477-.932 3.073-1.354 4.52-1.354 3.193 0 4.459 2.288 3.977 5.692l-.965 6.897c-.09.662-.09 1.054.211 1.415.06.09.15.27.15.482 0 .632-.602 1.175-1.265 1.175-.753 0-1.838-.362-1.446-3.072l.964-6.897M192.4 34.42c.09-.633.573-1.145 1.326-1.145.753 0 1.115.512 1.025 1.144l-.573 4.158h3.134c.542 0 .934.421.934.962 0 .723-.603 1.265-1.266 1.265h-3.133l-.844 5.994c-.421 3.103-.27 4.246 1.898 4.246.181 0 .392-.03.573-.03.633 0 1.416.12 1.416.933 0 1.146-.964 1.296-1.898 1.296-4.218 0-4.941-2.077-4.37-6.235l1.779-12.589M206.773 50.442a.97.97 0 0 1 .422-.09c.542 0 .903.452.903.933 0 1.566-3.464 2.08-5.151 2.08-3.405 0-5.062-2.17-4.67-5.001l.814-5.632c.422-2.891 2.62-5.09 6.206-5.09 2.953 0 4.399 1.597 4.399 4.096 0 3.162-1.688 5.27-5.784 5.27-.905 0-2.02-.089-3.044-.27l-.241 1.776c-.241 1.686.723 2.771 2.892 2.771 1.266 0 2.14-.361 3.254-.843zm-1.838-10.662c-1.959 0-3.254 1.055-3.494 2.741l-.332 2.29c1.115.15 2.56.21 3.163.21 2.29 0 3.074-1.235 3.074-3.012 0-1.566-.874-2.229-2.41-2.229zM217.154 37.642c1.507 0 3.796.391 3.796 1.567 0 .632-.572 1.204-1.265 1.204-.21 0-.332-.06-.513-.15-.602-.302-1.113-.543-2.199-.543-2.079 0-3.013.873-3.013 2.41 0 .723.362 1.204 1.176 1.626 1.807.964 4.91 1.265 4.91 4.578 0 3.012-1.987 5.03-5.724 5.03-1.476 0-4.188-.332-4.188-1.627 0-.541.482-1.204 1.265-1.204.181 0 .212.03.302.06.814.331 1.717.692 2.923.692 1.838 0 3.103-.783 3.103-2.56 0-.843-.392-1.265-.874-1.537-1.627-.962-5.242-1.203-5.242-4.606 0-2.862 1.987-4.94 5.543-4.94M74.809 24.215l-1.68.982c-.186.111-.41.249-.583.249a.394.394 0 0 1-.373-.385c0-.175.099-.361.298-.473l2.661-1.566a.587.587 0 0 1 .31-.087c.299 0 .498.236.46.535l-1.119 7.966a.609.609 0 0 1-.572.497.425.425 0 0 1-.422-.497l1.02-7.221M82.541 25.657l-.522 3.704c-.2 1.44-1.244 2.585-2.86 2.585-1.617 0-2.338-1.144-2.139-2.585l.522-3.704c.225-1.566 1.157-2.847 2.898-2.847 1.74 0 2.325 1.28 2.101 2.847zm-4.004-.1l-.534 3.804c-.137.994.298 1.664 1.28 1.664.983 0 1.616-.67 1.753-1.664l.535-3.803c.15-1.069-.174-1.84-1.256-1.84-1.081 0-1.629.771-1.778 1.84zM86.08 24.215l-1.679.982c-.186.111-.41.249-.584.249a.394.394 0 0 1-.373-.385c0-.175.1-.361.298-.473l2.66-1.566a.592.592 0 0 1 .312-.087c.298 0 .497.236.46.535l-1.12 7.966a.61.61 0 0 1-.571.497.426.426 0 0 1-.423-.497l1.02-7.221M88.634 31.946c-.335 0-.585-.274-.585-.61 0-.398.362-.732.772-.732.335 0 .571.26.571.583 0 .41-.36.759-.758.759M93.688 26.663c1.292.037 2.188.771 2.188 2.089 0 1.33-.958 3.181-2.96 3.181-.497 0-2.275-.124-2.275-.87 0-.273.25-.522.536-.522.086 0 .173.026.247.074.337.212.697.423 1.344.423 1.603 0 2.101-1.255 2.101-2.163 0-.931-.61-1.329-1.48-1.329a1.69 1.69 0 0 0-.547.075c-.074.024-.112.074-.224.074-.323 0-.497-.435-.21-.758l2.623-2.897h-2.76a.41.41 0 0 1-.423-.421c0-.298.26-.573.56-.573h3.468c.286 0 .472.187.472.485 0 .162-.049.286-.186.436l-2.474 2.696M101.677 25.147c.224-1.578 1.257-2.287 2.512-2.337.186-.012 1.056-.012 1.056.51 0 .311-.272.51-.547.51-.21 0-.397-.087-.745-.087-.733 0-1.194.596-1.294 1.304l-.11.77h1.304c.224 0 .386.175.386.399a.525.525 0 0 1-.523.522h-1.293l-1.019 7.283a.535.535 0 0 1-.547.473c-.311 0-.46-.213-.423-.473l1.243-8.874M111.936 27.57c.099-.695-.199-1.242-.957-1.242-.536 0-1.119.286-1.468.658.013.175.013.36-.012.56l-.547 3.89a.524.524 0 0 1-.548.472c-.323 0-.459-.21-.421-.472l.51-3.604c.123-.883.061-1.504-.822-1.504-.547 0-1.132.236-1.517.497 0 .15 0 .274-.012.385l-.597 4.226a.524.524 0 0 1-.547.472c-.323 0-.46-.21-.422-.472l.596-4.226c.1-.683-.012-.683-.1-.87-.012-.037-.062-.112-.062-.211 0-.26.237-.472.523-.472.211 0 .36.137.46.335.584-.348 1.243-.56 1.89-.56.684 0 1.094.225 1.355.635.572-.398 1.194-.634 1.89-.634 1.343 0 1.952.858 1.777 2.113l-.434 3.107c-.038.274-.038.435.086.584a.375.375 0 0 1 .062.2c0 .26-.248.484-.522.484-.31 0-.758-.15-.596-1.268l.435-3.083" fill="#282145"/></g></svg>