<svg width="25" height="25" viewBox="0 0 25 25" xmlns="http://www.w3.org/2000/svg"><title>mail</title><path d="M4.112 9.932c.278.182 1.117.722 2.516 1.62 1.4.897 2.472 1.588 3.217 2.073.082.053.256.168.521.346.266.179.487.323.663.432.176.11.39.233.639.37.25.136.485.238.706.306.22.069.425.102.614.102h.024c.189 0 .393-.033.614-.102.221-.068.457-.17.706-.306.25-.137.463-.26.639-.37.176-.11.396-.253.662-.432.266-.178.44-.293.522-.346.753-.485 2.668-1.716 5.746-3.693a5.632 5.632 0 0 0 1.497-1.398C23.8 7.989 24 7.417 24 6.818c0-.5-.195-.928-.583-1.284A1.977 1.977 0 0 0 22.036 5H3.964c-.63 0-1.115.197-1.455.59C2.17 5.986 2 6.478 2 7.069c0 .477.225.995.675 1.551.45.557.93.995 1.437 1.313zm18.66 1.216c-2.684 1.681-4.722 2.988-6.113 3.92-.467.318-.845.567-1.136.744-.29.179-.677.36-1.16.546-.483.186-.933.278-1.35.278h-.025c-.418 0-.868-.092-1.35-.278a7.24 7.24 0 0 1-1.16-.546c-.291-.177-.67-.426-1.136-.744-1.105-.75-3.14-2.057-6.102-3.92A6.397 6.397 0 0 1 2 10.159v9.023c0 .5.192.928.577 1.284A1.97 1.97 0 0 0 3.964 21h18.072a1.97 1.97 0 0 0 1.387-.534c.385-.356.577-.784.577-1.284v-9.023a6.65 6.65 0 0 1-1.228.989z" fill="#FFF" fill-rule="evenodd"/></svg>