<svg width="25" height="25" viewBox="0 0 25 25" xmlns="http://www.w3.org/2000/svg"><title>mail</title><path d="M4.112 9.932c.278.182 1.117.722 2.516 1.62 1.4.897 2.472 1.588 3.217 2.073.082.053.256.168.52.346.267.18.488.324.664.433.175.11.388.233.638.37.25.136.485.238.706.306.22.068.425.1.614.1h.024c.19 0 .393-.032.614-.1.22-.07.457-.17.706-.307.25-.137.463-.26.64-.37.175-.11.395-.253.66-.432.267-.177.44-.292.523-.345.753-.485 2.668-1.716 5.746-3.693A5.632 5.632 0 0 0 23.4 8.534C23.8 7.99 24 7.417 24 6.818c0-.5-.195-.928-.583-1.284A1.977 1.977 0 0 0 22.037 5H3.963c-.63 0-1.115.197-1.455.59-.34.395-.51.887-.51 1.478 0 .477.225.995.675 1.55.45.558.93.996 1.437 1.314zm18.66 1.216c-2.684 1.68-4.722 2.988-6.113 3.92-.468.318-.846.567-1.137.744-.29.18-.677.36-1.16.546-.483.186-.933.278-1.35.278h-.025c-.418 0-.868-.092-1.35-.278a7.24 7.24 0 0 1-1.16-.546c-.29-.177-.67-.426-1.136-.744-1.105-.75-3.14-2.057-6.102-3.92a6.397 6.397 0 0 1-1.24-.99v9.024c0 .5.192.928.577 1.284A1.97 1.97 0 0 0 3.964 21h18.072a1.97 1.97 0 0 0 1.387-.534c.385-.356.577-.784.577-1.284V10.16a6.65 6.65 0 0 1-1.228.988z" fill="#FFF" fill-rule="evenodd"/></svg>