<svg width="25" height="25" viewBox="0 0 25 25" xmlns="http://www.w3.org/2000/svg"><title>twitter</title><path d="M20.526 6.846c.89-.562 1.573-1.452 1.893-2.513-.834.52-1.755.898-2.737 1.102C18.9 4.55 17.78 4 16.54 4c-2.38 0-4.308 2.035-4.308 4.544 0 .356.036.703.11 1.034-3.58-.19-6.754-1.996-8.88-4.747-.37.674-.583 1.454-.583 2.286 0 1.576.76 2.967 1.916 3.783-.707-.024-1.37-.23-1.953-.57v.057c0 2.202 1.484 4.04 3.458 4.455-.362.107-.74.16-1.136.16-.277 0-.548-.027-.81-.08.548 1.804 2.14 3.12 4.025 3.155-1.477 1.22-3.334 1.944-5.352 1.944-.348 0-.69-.018-1.028-.06C3.907 21.246 6.17 22 8.604 22 16.53 22 20.86 15.076 20.86 9.07c0-.196 0-.393-.01-.586.842-.64 1.574-1.442 2.15-2.353-.773.362-1.604.607-2.474.716z" fill="#FFF" fill-rule="evenodd"/></svg>