<svg width="25" height="25" viewBox="0 0 25 25" xmlns="http://www.w3.org/2000/svg"><title>twitter</title><path d="M20.526 6.846a4.51 4.51 0 0 0 1.893-2.513 8.355 8.355 0 0 1-2.737 1.102A4.194 4.194 0 0 0 16.54 4c-2.38 0-4.308 2.035-4.308 4.544 0 .356.036.703.11 1.034-3.58-.19-6.754-1.996-8.88-4.747a4.724 4.724 0 0 0-.583 2.286c0 1.576.76 2.967 1.916 3.783a4.154 4.154 0 0 1-1.953-.57v.057c0 2.202 1.484 4.04 3.458 4.455a4.01 4.01 0 0 1-1.136.16 4.05 4.05 0 0 1-.81-.08c.548 1.804 2.14 3.12 4.025 3.155-1.477 1.22-3.334 1.944-5.352 1.944-.348 0-.69-.018-1.028-.06A11.747 11.747 0 0 0 8.604 22C16.53 22 20.86 15.076 20.86 9.07c0-.196 0-.393-.01-.586A9.006 9.006 0 0 0 23 6.13a8.257 8.257 0 0 1-2.474.716z" fill="#FFF" fill-rule="evenodd"/></svg>